<svg xmlns="http://www.w3.org/2000/svg" width="40" height="40" viewBox="0 0 40 40" fill="none">
  <rect width="40" height="40" rx="20" fill="#E0F2FE"/>
  <path d="M20 10C14.477 10 10 14.477 10 20C10 25.523 14.477 30 20 30C25.523 30 30 25.523 30 20C30 14.477 25.523 10 20 10ZM16.75 24.5C16.75 23.672 17.422 23 18.25 23H21.75C22.578 23 23.25 23.672 23.25 24.5C23.25 25.328 22.578 26 21.75 26H18.25C17.422 26 16.75 25.328 16.75 24.5ZM15.5 18.5C15.5 17.672 16.172 17 17 17C17.828 17 18.5 17.672 18.5 18.5C18.5 19.328 17.828 20 17 20C16.172 20 15.5 19.328 15.5 18.5ZM21.5 18.5C21.5 17.672 22.172 17 23 17C23.828 17 24.5 17.672 24.5 18.5C24.5 19.328 23.828 20 23 20C22.172 20 21.5 19.328 21.5 18.5Z" fill="#0EA5E9"/>
</svg> 